<?xml version="1.0" encoding="utf-8"?>
<!-- Generator: Adobe Illustrator 24.2.1, SVG Export Plug-In . SVG Version: 6.00 Build 0)  -->
<svg version="1.1" xmlns="http://www.w3.org/2000/svg" xmlns:xlink="http://www.w3.org/1999/xlink" x="0px" y="0px"
	 viewBox="0 0 500 500" style="enable-background:new 0 0 500 500;" xml:space="preserve">
<style type="text/css">
	.st0{fill:#3B2012;}
	.st1{fill:url(#SVGID_1_);}
</style>
<g id="Capa_2">
	<path class="st0" d="M0.49,421.57c0,0-6.97,54.89,74.46,70.6c81.43,15.7,0,0,0,0H412.9l86.4-79.62c0,0,7.21,78.21-86.75,86.6H74.77
		C74.77,499.15-2.8,492.13,0.49,421.57"/>
</g>
<g id="Capa_1">
	<linearGradient id="SVGID_1_" gradientUnits="userSpaceOnUse" x1="221.4408" y1="26.7902" x2="280.5771" y2="508.4174">
		<stop  offset="4.475343e-07" style="stop-color:#DB5019"/>
		<stop  offset="1" style="stop-color:#DB5C19"/>
	</linearGradient>
	<path class="st1" d="M68.51,157.36L383.54,12.63c0,0,101.67-51.56,115.27,72.37v325.8c0,0,12.17,67.71-85.92,81.37
		c0,0-341.52,0-337.94,0c3.58,0-74.46-9.32-74.46-67.71V226.31C0.49,226.31-10.25,189.04,68.51,157.36z"/>
</g>
</svg>
